<?xml version="1.0" encoding="UTF-8" standalone="no"?>
<!-- Generator: Adobe Illustrator 16.0.0, SVG Export Plug-In . SVG Version: 6.00 Build 0)  -->

<svg
   xmlns:dc="http://purl.org/dc/elements/1.1/"
   xmlns:cc="http://creativecommons.org/ns#"
   xmlns:rdf="http://www.w3.org/1999/02/22-rdf-syntax-ns#"
   xmlns:svg="http://www.w3.org/2000/svg"
   xmlns="http://www.w3.org/2000/svg"
   xmlns:sodipodi="http://sodipodi.sourceforge.net/DTD/sodipodi-0.dtd"
   xmlns:inkscape="http://www.inkscape.org/namespaces/inkscape"
   version="1.1"
   id="Layer_1"
   x="0px"
   y="0px"
   width="128"
   height="128"
   viewBox="0 0 128 128.00001"
   enable-background="new 0 0 266.893 266.895"
   xml:space="preserve"
   inkscape:version="0.48.4 r9939"
   sodipodi:docname="F_icon.svg"><metadata
     id="metadata9"><rdf:RDF><cc:Work
         rdf:about=""><dc:format>image/svg+xml</dc:format><dc:type
           rdf:resource="http://purl.org/dc/dcmitype/StillImage" /><dc:title></dc:title></cc:Work></rdf:RDF></metadata><defs
     id="defs7" /><sodipodi:namedview
     pagecolor="#ffffff"
     bordercolor="#666666"
     borderopacity="1"
     objecttolerance="10"
     gridtolerance="10"
     guidetolerance="10"
     inkscape:pageopacity="0"
     inkscape:pageshadow="2"
     inkscape:window-width="1855"
     inkscape:window-height="1056"
     id="namedview5"
     showgrid="false"
     inkscape:zoom="5.0020332"
     inkscape:cx="61.448415"
     inkscape:cy="66.414378"
     inkscape:window-x="1431"
     inkscape:window-y="24"
     inkscape:window-maximized="1"
     inkscape:current-layer="Layer_1" /><path
     style="fill:#000000;fill-opacity:0.75294119"
     d="M 7.0625 0 C 3.160173 0 5.9211895e-16 3.1602033 0 7.0625 L 0 120.9375 C 0 124.8388 3.1596763 128 7.0625 128 L 68.375 128 L 68.375 78.4375 L 51.6875 78.4375 L 51.6875 59.125 L 68.375 59.125 L 68.375 44.875 C 68.375 28.342512 78.470169 19.34375 93.21875 19.34375 C 100.28337 19.34375 106.35586 19.858331 108.125 20.09375 L 108.125 37.375 L 97.90625 37.375 C 89.886039 37.375 88.3125 41.188306 88.3125 46.78125 L 88.3125 59.125 L 107.4375 59.125 L 104.96875 78.4375 L 88.3125 78.4375 L 88.3125 128 L 120.9375 128 C 124.83833 128 128 124.8393 128 120.9375 L 128 7.0625 C 128 3.1602033 124.83883 5.9211895e-16 120.9375 0 L 7.0625 0 z "
     transform="translate(-5e-6,0)"
     id="Blue_1_"
     inkscape:export-filename="/home/rawieo/workspace/rawieo.com/img/F_icon.png"
     inkscape:export-xdpi="90"
     inkscape:export-ydpi="90" /></svg>