<?xml version="1.0" encoding="UTF-8" standalone="no"?>
<!-- Generator: Adobe Illustrator 16.0.0, SVG Export Plug-In . SVG Version: 6.00 Build 0)  -->

<svg
   xmlns:dc="http://purl.org/dc/elements/1.1/"
   xmlns:cc="http://creativecommons.org/ns#"
   xmlns:rdf="http://www.w3.org/1999/02/22-rdf-syntax-ns#"
   xmlns:svg="http://www.w3.org/2000/svg"
   xmlns="http://www.w3.org/2000/svg"
   xmlns:sodipodi="http://sodipodi.sourceforge.net/DTD/sodipodi-0.dtd"
   xmlns:inkscape="http://www.inkscape.org/namespaces/inkscape"
   version="1.1"
   id="Layer_1"
   x="0px"
   y="0px"
   width="128"
   height="128"
   viewBox="0 0 128 128"
   enable-background="new 0 0 134.658 131.646"
   xml:space="preserve"
   inkscape:version="0.48.4 r9939"
   sodipodi:docname="Google_plus.svg"><metadata
     id="metadata17"><rdf:RDF><cc:Work
         rdf:about=""><dc:format>image/svg+xml</dc:format><dc:type
           rdf:resource="http://purl.org/dc/dcmitype/StillImage" /><dc:title></dc:title></cc:Work></rdf:RDF></metadata><defs
     id="defs15" /><sodipodi:namedview
     pagecolor="#ffffff"
     bordercolor="#666666"
     borderopacity="1"
     objecttolerance="10"
     gridtolerance="10"
     guidetolerance="10"
     inkscape:pageopacity="0"
     inkscape:pageshadow="2"
     inkscape:window-width="1855"
     inkscape:window-height="1056"
     id="namedview13"
     showgrid="false"
     inkscape:zoom="5.0704831"
     inkscape:cx="64.298651"
     inkscape:cy="56.152684"
     inkscape:window-x="1431"
     inkscape:window-y="24"
     inkscape:window-maximized="1"
     inkscape:current-layer="Layer_1" /><path
     style="fill:#000000;fill-opacity:0.75294119"
     d="M 4 0 C 1.7928411 0 -5.9211895e-16 1.8381475 0 4.09375 L 0 123.90625 C 0 126.166 1.7928411 128 4 128 L 124 128 C 126.20716 128 128 126.16496 128 123.90625 L 128 4.09375 C 128 1.8371105 126.20615 5.9211895e-16 124 0 L 4 0 z M 57 19.96875 L 79.0625 19.96875 L 71.78125 24.65625 L 64.84375 24.65625 C 67.418938 26.836147 72.78125 31.421105 72.78125 40.15625 C 72.78125 48.650797 68.07928 52.681412 63.375 56.46875 C 61.915051 57.959004 60.25 59.56229 60.25 62.09375 C 60.25 64.614839 61.926446 65.987969 63.15625 67.03125 L 67.1875 70.25 C 72.119897 74.499866 76.59475 78.409215 76.59375 86.34375 C 76.59375 97.142641 66.398354 108.03125 47.125 108.03125 C 30.871917 108.03125 23.03125 100.13096 23.03125 91.625 C 23.03125 87.492321 25.042884 81.6165 31.65625 77.59375 C 38.600132 73.227733 48.016552 72.667174 53.0625 72.3125 C 51.486972 70.245642 49.71875 68.058148 49.71875 64.5 C 49.71875 62.549292 50.257922 61.411575 50.8125 60.03125 C 49.577627 60.148437 48.371322 60.25 47.25 60.25 C 35.374735 60.25 28.65625 51.177899 28.65625 42.21875 C 28.65625 36.941159 30.994669 31.064441 35.8125 26.8125 C 42.204846 21.41461 50.941212 19.96875 57 19.96875 z M 48.8125 24.3125 C 45.889561 24.3125 42.766312 25.793554 40.96875 28.09375 C 39.061691 30.50906 38.5 33.598724 38.5 36.59375 C 38.5 44.28665 42.858254 57.03125 52.5 57.03125 C 55.300263 57.03125 58.322369 55.652242 60.125 53.8125 C 62.702216 51.160741 62.9375 47.507469 62.9375 45.4375 C 62.9375 37.163847 58.107508 24.3125 48.8125 24.3125 z M 89.9375 45.375 L 95.5 45.375 L 95.5 56.875 L 106.75 56.875 L 106.75 62.59375 L 95.5 62.59375 L 95.5 74.15625 L 89.9375 74.15625 L 89.9375 62.59375 L 78.75 62.59375 L 78.75 56.875 L 89.9375 56.875 L 89.9375 45.375 z M 54.3125 75.53125 C 53.302702 75.53125 47.23553 75.756152 42.53125 77.375 C 40.064545 78.288649 32.90625 81.063322 32.90625 89.21875 C 32.90625 97.376253 40.63517 103.21875 52.625 103.21875 C 63.38604 103.21875 69.09375 97.925685 69.09375 90.8125 C 69.09375 84.9386 65.398465 81.860972 56.875 75.65625 C 55.982809 75.541137 55.432808 75.53125 54.3125 75.53125 z "
     id="path5" /></svg>