<?xml version="1.0" encoding="UTF-8" standalone="no"?>
<!-- Created with Inkscape (http://www.inkscape.org/) -->
<svg id="svg3735" xmlns:rdf="http://www.w3.org/1999/02/22-rdf-syntax-ns#" xmlns="http://www.w3.org/2000/svg" height="128" width="128" version="1.1" xmlns:cc="http://creativecommons.org/ns#" xmlns:dc="http://purl.org/dc/elements/1.1/">
 <metadata id="metadata3740">
  <rdf:RDF>
   <cc:Work rdf:about="">
    <dc:format>image/svg+xml</dc:format>
    <dc:type rdf:resource="http://purl.org/dc/dcmitype/StillImage"/>
    <dc:title/>
   </cc:Work>
  </rdf:RDF>
 </metadata>
 <g id="layer1" transform="translate(0 -924.36)">
  <path id="path24" d="m63.994 924.36c-35.34 0-63.994 29.38-63.994 65.62-2.544e-7 29.02 18.336 53.62 43.768 62.22 3.2021 0.6002 4.3689-1.426 4.3689-3.1663 0-1.5549-0.055-5.6839-0.08644-11.158-17.802 3.9639-21.558-8.7979-21.558-8.7979-2.9113-7.5773-7.1074-9.5955-7.1074-9.5955-5.8109-4.0726 0.44004-3.992 0.44004-3.992 6.4238 0.4672 9.8026 6.7635 9.8026 6.7635 5.7087 10.027 14.981 7.1302 18.627 5.4544 0.58148-4.2418 2.2316-7.1342 4.0625-8.7737-14.211-1.6557-29.153-7.2873-29.153-32.432 0-7.1624 2.4949-13.02 6.5888-17.608-0.66006-1.6597-2.8563-8.3306 0.6247-17.366 0 0 5.3748-1.7644 17.602 6.7273 5.1037-1.4542 10.581-2.1834 16.022-2.2075 5.4337 0.0242 10.911 0.7533 16.022 2.2075 12.219-8.4917 17.582-6.7273 17.582-6.7273 3.4928 9.0356 1.2965 15.706 0.63648 17.366 4.1018 4.5883 6.5809 10.445 6.5809 17.608 0 25.209-14.965 30.756-29.223 32.38 2.2984 2.0263 4.3454 6.0304 4.3454 12.154 0 8.7697-0.07858 15.848-0.07858 17.999 0 1.7564 1.1512 3.7988 4.4004 3.1583 25.414-8.7 43.734-33.2 43.734-62.22 0-36.24-28.657-65.62-64.006-65.62" fill-rule="evenodd"/>
 </g>
</svg>
