<?xml version="1.0" encoding="UTF-8" standalone="no"?>
<!-- Created with Inkscape (http://www.inkscape.org/) -->
<svg id="svg2985" xmlns:rdf="http://www.w3.org/1999/02/22-rdf-syntax-ns#" xmlns="http://www.w3.org/2000/svg" xml:space="preserve" height="128" width="128" version="1.1" xmlns:cc="http://creativecommons.org/ns#" xmlns:dc="http://purl.org/dc/elements/1.1/"><metadata id="metadata2991"><rdf:RDF><cc:Work rdf:about=""><dc:format>image/svg+xml</dc:format><dc:type rdf:resource="http://purl.org/dc/dcmitype/StillImage"/><dc:title/></cc:Work></rdf:RDF></metadata><g id="layer4"><path id="path4188" d="m64 0c-33.299 0.024698-61.016 25.58-63.738 58.768l33.972 14.162c3.023-2.119 6.622-3.258 10.313-3.266 0.383 0.007 0.765 0.026 1.146 0.057l15.473-22.389-0.002-0.031c0-13.229 10.724-23.953 23.953-23.953s23.953 10.724 23.953 23.953-10.724 23.953-23.953 23.953c-0.155-0.006-0.311-0.014-0.467-0.024l-22.097 15.735c0.013 0.243 0.022 0.487 0.025 0.73 0 9.959-8.073 18.035-18.031 18.035-8.537-0.01-15.897-6.01-17.633-14.369l-24.465-9.89c7.81 27.519 32.94 46.519 61.551 46.529 35.346 0 64-28.654 64-64s-28.654-64-64-64zm20.99 31.023a16.157 16.157 0 0 0 -16.156 16.157 16.157 16.157 0 0 0 16.156 16.156 16.157 16.157 0 0 0 16.16 -16.156 16.157 16.157 0 0 0 -16.16 -16.157zm-0.035 4.129a12.032 12.032 0 0 1 12.031 12.032 12.032 12.032 0 0 1 -12.031 12.031 12.032 12.032 0 0 1 -12.033 -12.031 12.032 12.032 0 0 1 12.033 -12.032zm-40.773 38.752c-1.791 0.004-3.564 0.446-5.219 1.129 3.31 1.358 6.621 2.717 9.932 4.074 3.105 1.716 4.998 5.003 5 8.551 0 5.385-4.366 9.75-9.75 9.75-0.802-0.004-1.6-0.107-2.379-0.306-0.779-0.2-1.484-0.469-2.151-0.817l-7.978-3.066c2.203 4.962 7.116 8.181 12.545 8.181 7.594 0 13.75-6.152 13.75-13.746s-6.156-13.75-13.75-13.75z"/></g></svg>
