<?xml version="1.0" encoding="UTF-8" standalone="no"?>
<svg id="svg2" xmlns:rdf="http://www.w3.org/1999/02/22-rdf-syntax-ns#" xmlns="http://www.w3.org/2000/svg" height="128" width="128" version="1.1" xmlns:cc="http://creativecommons.org/ns#" xmlns:dc="http://purl.org/dc/elements/1.1/" viewBox="0 0 128 128">
 <metadata id="metadata26">
  <rdf:RDF>
   <cc:Work rdf:about="">
    <dc:format>image/svg+xml</dc:format>
    <dc:type rdf:resource="http://purl.org/dc/dcmitype/StillImage"/>
    <dc:title/>
   </cc:Work>
  </rdf:RDF>
 </metadata>
 <path id="circle16" d="m64 0c-35.346 0-64 28.654-64 64s28.654 64 64 64 64-28.654 64-64-28.654-64-64-64zm28.536 38.498c2.1523-0.07868 3.7827 1.8684 2.9094 5.3698l-10.499 49.474c-0.73312 3.5157-2.8568 4.3562-5.8 2.7323l-18.563-13.715-8.316 10.974c-2.0734 0-1.7214-0.7831-2.4365-2.7573l-5.439-17.904-15.818-4.937c-3.4165-1.0461-3.4414-3.3945 0.76667-5.0823l61.647-23.771c0.52793-0.23968 1.0523-0.36622 1.549-0.38438z"/>
</svg>
