<?xml version="1.0" encoding="UTF-8" standalone="no"?>
<!-- Generator: Adobe Illustrator 16.0.4, SVG Export Plug-In . SVG Version: 6.00 Build 0)  -->

<svg
   xmlns:dc="http://purl.org/dc/elements/1.1/"
   xmlns:cc="http://creativecommons.org/ns#"
   xmlns:rdf="http://www.w3.org/1999/02/22-rdf-syntax-ns#"
   xmlns:svg="http://www.w3.org/2000/svg"
   xmlns="http://www.w3.org/2000/svg"
   xmlns:sodipodi="http://sodipodi.sourceforge.net/DTD/sodipodi-0.dtd"
   xmlns:inkscape="http://www.inkscape.org/namespaces/inkscape"
   version="1.1"
   id="Layer_1"
   x="0px"
   y="0px"
   width="128"
   height="128"
   viewBox="0 0 128 128"
   enable-background="new 0 0 26 26"
   xml:space="preserve"
   inkscape:version="0.48.4 r9939"
   sodipodi:docname="VK_icon.svg"
   inkscape:export-filename="/home/rawieo/workspace/rawieo.com/img/VK_icon.png"
   inkscape:export-xdpi="90"
   inkscape:export-ydpi="90"><metadata
     id="metadata9"><rdf:RDF><cc:Work
         rdf:about=""><dc:format>image/svg+xml</dc:format><dc:type
           rdf:resource="http://purl.org/dc/dcmitype/StillImage" /><dc:title></dc:title></cc:Work></rdf:RDF></metadata><defs
     id="defs7" /><sodipodi:namedview
     pagecolor="#ffffff"
     bordercolor="#666666"
     borderopacity="1"
     objecttolerance="10"
     gridtolerance="10"
     guidetolerance="10"
     inkscape:pageopacity="0"
     inkscape:pageshadow="2"
     inkscape:window-width="1855"
     inkscape:window-height="1056"
     id="namedview5"
     showgrid="false"
     inkscape:zoom="6.4183539"
     inkscape:cx="56.647825"
     inkscape:cy="61.139712"
     inkscape:window-x="1431"
     inkscape:window-y="24"
     inkscape:window-maximized="1"
     inkscape:current-layer="Layer_1" /><path
     d="M 102.912,0 H 25.088 C 11.288615,0 0,11.288615 0,25.078154 V 102.92185 C 0,116.71138 11.288615,128 25.088,128 h 77.824 C 116.71138,128 128,116.71138 128,102.92185 V 25.078154 C 128,11.288615 116.71138,0 102.912,0 z m -4.731077,74.358154 c 7.010457,6.498461 8.467697,9.664 8.703997,10.057846 2.90462,4.819692 -3.20984,5.198769 -3.20984,5.198769 l -11.702157,0.157539 c 0,0 -2.520615,0.502154 -5.828923,-1.772308 -4.376615,-2.993231 -8.502154,-10.801231 -11.716923,-9.787077 -3.259077,1.033846 -3.160615,8.064 -3.160615,8.064 0,0 0.01969,0.999385 -0.71877,1.806769 -0.802461,0.84677 -2.382769,0.531693 -2.382769,0.531693 h -5.228308 c 0,0 -11.554461,1.186461 -21.730461,-9.403077 C 30.109538,67.657846 20.312615,44.977231 20.312615,44.977231 c 0,0 -0.56123,-1.378462 0.04923,-2.107077 0.694154,-0.817231 2.569846,-0.807385 2.569846,-0.807385 l 12.514462,-0.04923 c 0,0 1.176615,0.211693 2.023384,0.832 0.699077,0.512 1.088,1.476924 1.088,1.476924 0,0 2.023385,5.12 4.701539,9.747692 5.228308,9.033846 7.665231,11.012923 9.437538,10.043077 2.589539,-1.412923 1.811693,-12.770462 1.811693,-12.770462 0,0 0.04923,-4.125538 -1.304616,-5.961846 -1.043692,-1.422769 -3.012923,-1.841231 -3.884307,-1.954461 -0.708923,-0.09354 0.448,-1.728 1.949538,-2.461539 2.254769,-1.102769 6.232615,-1.161846 10.934154,-1.117538 3.657846,0.03446 4.716308,0.265846 6.144,0.610461 4.317538,1.038769 2.850461,5.065846 2.850461,14.715077 0,3.091692 -0.556307,7.438769 1.673847,8.881231 0.96,0.620308 3.308307,0.09354 9.166769,-9.865846 2.781538,-4.721231 4.859077,-10.269539 4.859077,-10.269539 0,0 0.462769,-0.989538 1.161846,-1.412923 0.723692,-0.433231 1.703385,-0.300308 1.703385,-0.300308 l 13.179078,-0.08369 c 0,0 3.95815,-0.472615 4.59815,1.314462 0.67939,1.875692 -1.48184,6.252307 -6.86277,13.42523 -8.851689,11.780924 -9.826458,10.688 -2.495997,17.496616 z"
     id="path3"
     inkscape:connector-curvature="0"
     style="fill:#000000;stroke:none;stroke-opacity:1;fill-opacity:0.75294119" /></svg>